# Blender 4.4.3
# www.blender.org
o Cylinder.012
v 0.071974 -0.666918 0.080588
v 0.027592 -0.667492 0.187735
v -0.079557 -0.667730 0.232117
v -0.186706 -0.667492 0.187735
v -0.231088 -0.666918 0.080588
v -0.186705 -0.666344 -0.026559
v -0.079557 -0.666106 -0.070941
v 0.027592 -0.666344 -0.026559
v 0.029831 0.175938 0.085105
v -0.002208 0.175523 0.162453
v -0.079557 0.175351 0.194491
v -0.156906 0.175523 0.162453
v -0.188944 0.175938 0.085105
v -0.156906 0.176352 0.007757
v -0.079557 0.176524 -0.024281
v -0.002208 0.176352 0.007757
v 0.018507 0.366527 0.086126
v -0.010271 0.367475 0.155418
v -0.079557 0.367868 0.184088
v -0.148843 0.367475 0.155418
v -0.177620 0.366527 0.086126
v -0.148954 0.365577 0.016723
v -0.079557 0.365183 -0.012057
v -0.010160 0.365577 0.016723
v -0.079557 0.365183 -0.012057
v -0.010160 0.365577 0.016723
v -0.148954 0.365577 0.016723
v -0.177620 0.366527 0.086126
v -0.148843 0.367475 0.155418
v -0.079557 0.367868 0.184088
v -0.010271 0.367475 0.155418
v 0.018507 0.366527 0.086126
v -0.079557 0.365183 -0.012057
v -0.010160 0.365577 0.016723
v -0.148954 0.365577 0.016723
v -0.177620 0.366527 0.086126
v -0.148843 0.367475 0.155418
v -0.079557 0.367868 0.184088
v -0.010271 0.367475 0.155418
v 0.018507 0.366527 0.086126
v -0.079557 0.800955 0.014759
v -0.033338 0.801218 0.033927
v -0.125775 0.801218 0.033927
v -0.144867 0.801851 0.080149
v -0.125701 0.802482 0.126298
v -0.079557 0.802744 0.145392
v -0.033412 0.802482 0.126298
v -0.014246 0.801850 0.080149
vn -0.0000 -1.0000 -0.0054
vn 0.3823 0.0511 -0.9226
vn -0.3823 0.0511 -0.9226
vn -0.9229 0.0482 -0.3820
vn -0.9229 0.0441 0.3825
vn -0.3823 0.0412 0.9231
vn 0.3823 0.0412 0.9231
vn 0.9229 0.0441 0.3825
vn 0.9229 0.0482 -0.3820
vn 0.3821 0.0598 -0.9222
vn -0.3821 0.0598 -0.9222
vn -0.9225 0.0569 -0.3818
vn -0.9225 0.0528 0.3824
vn -0.3821 0.0499 0.9228
vn 0.3821 0.0499 0.9228
vn 0.9225 0.0528 0.3824
vn 0.9225 0.0569 -0.3818
vn -0.0000 1.0000 0.0054
vn 0.9220 0.0641 -0.3817
vn -0.0000 0.9999 -0.0137
vn 0.3815 0.0819 0.9208
vn -0.9213 0.0746 0.3816
vn -0.3822 0.0568 -0.9223
vn 0.9213 0.0746 0.3816
vn -0.3815 0.0819 0.9208
vn -0.9220 0.0641 -0.3817
vn 0.3822 0.0568 -0.9223
vt 0.919706 0.080294
vt 0.580294 0.080294
vt 0.580294 0.419706
vt 0.250000 0.778117
vt 0.125000 0.500000
vt 0.250000 0.500000
vt 0.375000 0.778117
vt 0.375000 0.500000
vt 0.500000 0.500000
vt 0.625000 0.778117
vt 0.625000 0.500000
vt 0.750000 0.778117
vt 0.750000 0.500000
vt 0.875000 0.778117
vt 0.875000 0.500000
vt 1.000000 0.778117
vt 1.000000 0.500000
vt 0.000000 0.778117
vt 0.000000 0.500000
vt 0.125000 0.778117
vt 0.500000 0.778117
vt 0.750000 0.490000
vt 0.919706 0.419706
vt 0.990000 0.250000
vt 0.750000 0.010000
vt 0.510000 0.250000
s 0
f 4/1/1 6/2/1 8/3/1
f 15/4/2 8/5/2 7/6/2
f 14/7/3 7/6/3 6/8/3
f 5/9/4 14/7/4 6/8/4
f 12/10/5 5/9/5 4/11/5
f 11/12/6 4/11/6 3/13/6
f 10/14/7 3/13/7 2/15/7
f 9/16/8 2/15/8 1/17/8
f 8/5/9 9/18/9 1/19/9
f 16/20/10 23/4/10 24/20/10
f 14/7/11 23/4/11 15/4/11
f 13/21/12 22/7/12 14/7/12
f 12/10/13 21/21/13 13/21/13
f 11/12/14 20/10/14 12/10/14
f 11/12/15 18/14/15 19/12/15
f 10/14/16 17/16/16 18/14/16
f 9/18/17 24/20/17 17/18/17
f 17/18/18 26/20/18 32/18/18
f 25/4/18 35/7/18 33/4/18
f 19/12/18 31/14/18 30/12/18
f 21/21/18 29/10/18 28/21/18
f 23/4/18 27/7/18 25/4/18
f 18/14/18 32/16/18 31/14/18
f 20/10/18 30/12/18 29/10/18
f 22/7/18 28/21/18 27/7/18
f 24/20/18 25/4/18 26/20/18
f 34/20/19 48/18/19 40/18/19
f 31/14/18 40/16/18 39/14/18
f 29/10/18 38/12/18 37/10/18
f 27/7/18 36/21/18 35/7/18
f 26/20/18 33/4/18 34/20/18
f 32/18/18 34/20/18 40/18/18
f 30/12/18 39/14/18 38/12/18
f 28/21/18 37/10/18 36/21/18
f 45/10/20 47/14/20 42/20/20
f 39/14/21 46/12/21 38/12/21
f 36/21/22 45/10/22 44/21/22
f 33/4/23 43/7/23 41/4/23
f 40/16/24 47/14/24 39/14/24
f 37/10/25 46/12/25 45/10/25
f 35/7/26 44/21/26 43/7/26
f 33/4/27 42/20/27 34/20/27
f 8/3/1 1/22/1 2/23/1
f 2/23/1 3/24/1 4/1/1
f 4/1/1 5/25/1 6/2/1
f 6/2/1 7/26/1 8/3/1
f 8/3/1 2/23/1 4/1/1
f 15/4/2 16/20/2 8/5/2
f 14/7/3 15/4/3 7/6/3
f 5/9/4 13/21/4 14/7/4
f 12/10/5 13/21/5 5/9/5
f 11/12/6 12/10/6 4/11/6
f 10/14/7 11/12/7 3/13/7
f 9/16/8 10/14/8 2/15/8
f 8/5/9 16/20/9 9/18/9
f 16/20/10 15/4/10 23/4/10
f 14/7/11 22/7/11 23/4/11
f 13/21/12 21/21/12 22/7/12
f 12/10/13 20/10/13 21/21/13
f 11/12/14 19/12/14 20/10/14
f 11/12/15 10/14/15 18/14/15
f 10/14/16 9/16/16 17/16/16
f 9/18/17 16/20/17 24/20/17
f 17/18/18 24/20/18 26/20/18
f 25/4/18 27/7/18 35/7/18
f 19/12/18 18/14/18 31/14/18
f 21/21/18 20/10/18 29/10/18
f 23/4/18 22/7/18 27/7/18
f 18/14/18 17/16/18 32/16/18
f 20/10/18 19/12/18 30/12/18
f 22/7/18 21/21/18 28/21/18
f 24/20/18 23/4/18 25/4/18
f 34/20/19 42/20/19 48/18/19
f 31/14/18 32/16/18 40/16/18
f 29/10/18 30/12/18 38/12/18
f 27/7/18 28/21/18 36/21/18
f 26/20/18 25/4/18 33/4/18
f 32/18/18 26/20/18 34/20/18
f 30/12/18 31/14/18 39/14/18
f 28/21/18 29/10/18 37/10/18
f 42/20/20 41/4/20 43/7/20
f 43/7/20 44/21/20 45/10/20
f 45/10/20 46/12/20 47/14/20
f 47/14/20 48/16/20 42/20/20
f 42/20/20 43/7/20 45/10/20
f 39/14/21 47/14/21 46/12/21
f 36/21/22 37/10/22 45/10/22
f 33/4/23 35/7/23 43/7/23
f 40/16/24 48/16/24 47/14/24
f 37/10/25 38/12/25 46/12/25
f 35/7/26 36/21/26 44/21/26
f 33/4/27 41/4/27 42/20/27
