# Blender 4.4.3
# www.blender.org
o Cylinder.001
v 0.151995 0.001458 0.002676
v 0.107613 -0.105691 0.002676
v 0.000464 -0.150073 0.002676
v -0.106685 -0.105691 0.002676
v -0.151067 0.001458 0.002676
v -0.106685 0.108607 0.002676
v 0.000464 0.152989 0.002676
v 0.107613 0.108607 0.002676
v 0.109852 0.001458 0.845544
v 0.077813 -0.075891 0.845544
v 0.000464 -0.107930 0.845544
v -0.076885 -0.075891 0.845544
v -0.108924 0.001458 0.845544
v -0.076885 0.078807 0.845544
v 0.000464 0.110846 0.845544
v 0.077813 0.078807 0.845544
v 0.098528 0.001458 1.036136
v 0.069750 -0.067828 1.037456
v 0.000464 -0.096495 1.038002
v -0.068822 -0.067828 1.037456
v -0.097599 0.001458 1.036136
v -0.068933 0.070855 1.034814
v 0.000464 0.099633 1.034266
v 0.069861 0.070855 1.034814
v 0.000464 0.099633 1.034266
v 0.069861 0.070855 1.034814
v -0.068933 0.070855 1.034814
v -0.097599 0.001458 1.036136
v -0.068822 -0.067828 1.037456
v 0.000464 -0.096495 1.038002
v 0.069750 -0.067828 1.037456
v 0.098528 0.001458 1.036136
v 0.000464 0.099633 1.034266
v 0.069861 0.070855 1.034814
v -0.068933 0.070855 1.034814
v -0.097599 0.001458 1.036136
v -0.068822 -0.067828 1.037456
v 0.000464 -0.096495 1.038002
v 0.069750 -0.067828 1.037456
v 0.098528 0.001458 1.036136
v 0.000464 0.075152 1.470176
v 0.046683 0.055986 1.470541
v -0.045754 0.055986 1.470541
v -0.064846 0.009768 1.471421
v -0.045681 -0.036377 1.472300
v 0.000464 -0.055469 1.472664
v 0.046609 -0.036377 1.472300
v 0.065775 0.009768 1.471421
vn -0.0000 -0.0000 -1.0000
vn 0.3823 0.9229 0.0461
vn -0.3823 0.9229 0.0461
vn -0.9229 0.3823 0.0461
vn -0.9229 -0.3823 0.0461
vn -0.3823 -0.9229 0.0461
vn 0.3823 -0.9229 0.0461
vn 0.9229 -0.3823 0.0461
vn 0.9229 0.3823 0.0461
vn 0.3821 0.9225 0.0548
vn -0.3821 0.9225 0.0548
vn -0.9225 0.3821 0.0548
vn -0.9225 -0.3821 0.0548
vn -0.3821 -0.9225 0.0548
vn 0.3821 -0.9225 0.0548
vn 0.9225 -0.3821 0.0548
vn 0.9225 0.3821 0.0548
vn -0.0000 -0.0000 1.0000
vn 0.9220 0.3821 0.0621
vn -0.0000 0.0190 0.9998
vn 0.3815 -0.9203 0.0869
vn -0.9213 -0.3812 0.0766
vn -0.3822 0.9226 0.0518
vn 0.9213 -0.3812 0.0766
vn -0.3815 -0.9203 0.0869
vn -0.9220 0.3821 0.0621
vn 0.3822 0.9226 0.0518
vt 0.919706 0.080294
vt 0.580294 0.080294
vt 0.580294 0.419706
vt 0.250000 0.778117
vt 0.125000 0.500000
vt 0.250000 0.500000
vt 0.375000 0.778117
vt 0.375000 0.500000
vt 0.500000 0.500000
vt 0.625000 0.778117
vt 0.625000 0.500000
vt 0.750000 0.778117
vt 0.750000 0.500000
vt 0.875000 0.778117
vt 0.875000 0.500000
vt 1.000000 0.778117
vt 1.000000 0.500000
vt 0.000000 0.778117
vt 0.000000 0.500000
vt 0.125000 0.778117
vt 0.500000 0.778117
vt 0.750000 0.490000
vt 0.919706 0.419706
vt 0.990000 0.250000
vt 0.750000 0.010000
vt 0.510000 0.250000
s 0
f 4/1/1 6/2/1 8/3/1
f 15/4/2 8/5/2 7/6/2
f 14/7/3 7/6/3 6/8/3
f 5/9/4 14/7/4 6/8/4
f 12/10/5 5/9/5 4/11/5
f 11/12/6 4/11/6 3/13/6
f 10/14/7 3/13/7 2/15/7
f 9/16/8 2/15/8 1/17/8
f 8/5/9 9/18/9 1/19/9
f 16/20/10 23/4/10 24/20/10
f 14/7/11 23/4/11 15/4/11
f 13/21/12 22/7/12 14/7/12
f 12/10/13 21/21/13 13/21/13
f 11/12/14 20/10/14 12/10/14
f 11/12/15 18/14/15 19/12/15
f 10/14/16 17/16/16 18/14/16
f 9/18/17 24/20/17 17/18/17
f 17/18/18 26/20/18 32/18/18
f 25/4/18 35/7/18 33/4/18
f 19/12/18 31/14/18 30/12/18
f 21/21/18 29/10/18 28/21/18
f 23/4/18 27/7/18 25/4/18
f 18/14/18 32/16/18 31/14/18
f 20/10/18 30/12/18 29/10/18
f 22/7/18 28/21/18 27/7/18
f 24/20/18 25/4/18 26/20/18
f 34/20/19 48/18/19 40/18/19
f 31/14/18 40/16/18 39/14/18
f 29/10/18 38/12/18 37/10/18
f 27/7/18 36/21/18 35/7/18
f 26/20/18 33/4/18 34/20/18
f 32/18/18 34/20/18 40/18/18
f 30/12/18 39/14/18 38/12/18
f 28/21/18 37/10/18 36/21/18
f 45/10/20 47/14/20 42/20/20
f 39/14/21 46/12/21 38/12/21
f 36/21/22 45/10/22 44/21/22
f 33/4/23 43/7/23 41/4/23
f 40/16/24 47/14/24 39/14/24
f 37/10/25 46/12/25 45/10/25
f 35/7/26 44/21/26 43/7/26
f 33/4/27 42/20/27 34/20/27
f 8/3/1 1/22/1 2/23/1
f 2/23/1 3/24/1 4/1/1
f 4/1/1 5/25/1 6/2/1
f 6/2/1 7/26/1 8/3/1
f 8/3/1 2/23/1 4/1/1
f 15/4/2 16/20/2 8/5/2
f 14/7/3 15/4/3 7/6/3
f 5/9/4 13/21/4 14/7/4
f 12/10/5 13/21/5 5/9/5
f 11/12/6 12/10/6 4/11/6
f 10/14/7 11/12/7 3/13/7
f 9/16/8 10/14/8 2/15/8
f 8/5/9 16/20/9 9/18/9
f 16/20/10 15/4/10 23/4/10
f 14/7/11 22/7/11 23/4/11
f 13/21/12 21/21/12 22/7/12
f 12/10/13 20/10/13 21/21/13
f 11/12/14 19/12/14 20/10/14
f 11/12/15 10/14/15 18/14/15
f 10/14/16 9/16/16 17/16/16
f 9/18/17 16/20/17 24/20/17
f 17/18/18 24/20/18 26/20/18
f 25/4/18 27/7/18 35/7/18
f 19/12/18 18/14/18 31/14/18
f 21/21/18 20/10/18 29/10/18
f 23/4/18 22/7/18 27/7/18
f 18/14/18 17/16/18 32/16/18
f 20/10/18 19/12/18 30/12/18
f 22/7/18 21/21/18 28/21/18
f 24/20/18 23/4/18 25/4/18
f 34/20/19 42/20/19 48/18/19
f 31/14/18 32/16/18 40/16/18
f 29/10/18 30/12/18 38/12/18
f 27/7/18 28/21/18 36/21/18
f 26/20/18 25/4/18 33/4/18
f 32/18/18 26/20/18 34/20/18
f 30/12/18 31/14/18 39/14/18
f 28/21/18 29/10/18 37/10/18
f 42/20/20 41/4/20 43/7/20
f 43/7/20 44/21/20 45/10/20
f 45/10/20 46/12/20 47/14/20
f 47/14/20 48/16/20 42/20/20
f 42/20/20 43/7/20 45/10/20
f 39/14/21 47/14/21 46/12/21
f 36/21/22 37/10/22 45/10/22
f 33/4/23 35/7/23 43/7/23
f 40/16/24 48/16/24 47/14/24
f 37/10/25 38/12/25 46/12/25
f 35/7/26 36/21/26 44/21/26
f 33/4/27 41/4/27 42/20/27
o Cylinder.003
v -0.047183 0.042256 0.936496
v -0.054634 -0.070904 0.831773
v -0.040695 0.068408 0.907776
v -0.048147 -0.044752 0.803052
v -0.008675 0.082808 0.889938
v -0.016126 -0.030352 0.785214
v 0.030122 0.077021 0.893431
v 0.022671 -0.036139 0.788707
v 0.052968 0.054436 0.916209
v 0.045517 -0.058724 0.811486
v 0.046481 0.028284 0.944930
v 0.039030 -0.084876 0.840206
v 0.014460 0.013884 0.962768
v 0.007009 -0.099276 0.858045
v -0.024336 0.019671 0.959275
v -0.031788 -0.093489 0.854552
v 0.009600 0.562434 1.410735
v 0.013145 0.576725 1.395041
v 0.030642 0.584593 1.385293
v 0.051843 0.581431 1.387202
v 0.064327 0.569089 1.399650
v 0.060782 0.554799 1.415344
v 0.043285 0.546930 1.425092
v 0.022084 0.550092 1.423183
vn -0.9852 0.1470 -0.0887
vn -0.5801 0.5735 -0.5784
vn 0.1647 0.6641 -0.7293
vn 0.8131 0.3657 -0.4530
vn 0.9852 -0.1470 0.0887
vn 0.5801 -0.5735 0.5784
vn -0.0483 -0.7331 -0.6784
vn -0.1647 -0.6641 0.7293
vn -0.8131 -0.3657 0.4530
vn 0.1661 0.6861 -0.7082
vn 0.0483 0.7331 0.6784
vn 0.5813 -0.5508 0.5989
vn 0.8142 0.3879 -0.4320
vn -0.1632 -0.6414 0.7497
vn -0.5784 0.5956 -0.5574
vn 0.9862 -0.1245 0.1094
vn -0.8112 -0.3431 0.4735
vn -0.9832 0.1693 -0.0679
vt 1.000000 1.000000
vt 0.875000 0.500000
vt 1.000000 0.500000
vt 0.875000 1.000000
vt 0.750000 0.500000
vt 0.750000 1.000000
vt 0.625000 0.500000
vt 0.625000 1.000000
vt 0.500000 0.500000
vt 0.500000 1.000000
vt 0.375000 0.500000
vt 0.375000 1.000000
vt 0.250000 0.500000
vt 0.010000 0.250000
vt 0.250000 0.010000
vt 0.490000 0.250000
vt 0.250000 1.000000
vt 0.125000 0.500000
vt 0.125000 1.000000
vt 0.000000 0.500000
vt 0.919706 0.080294
vt 0.580294 0.080294
vt 0.580294 0.419706
vt 0.419706 0.419706
vt 0.250000 0.490000
vt 0.080294 0.419706
vt 0.080294 0.080294
vt 0.419706 0.080294
vt 0.000000 1.000000
vt 0.750000 0.490000
vt 0.919706 0.419706
vt 0.990000 0.250000
vt 0.750000 0.010000
vt 0.510000 0.250000
s 0
f 50/27/28 49/29/28 51/28/28
f 52/30/29 51/28/29 53/31/29
f 54/32/30 53/31/30 55/33/30
f 56/34/31 55/33/31 57/35/31
f 58/36/32 57/35/32 59/37/32
f 60/38/33 59/37/33 61/39/33
f 62/40/34 54/42/34 58/41/34
f 62/43/35 61/39/35 63/44/35
f 64/45/36 63/44/36 49/46/36
f 55/33/37 53/31/37 67/31/37
f 68/47/38 72/49/38 70/48/38
f 61/39/39 59/37/39 70/37/39
f 55/33/40 68/33/40 69/35/40
f 61/39/41 71/39/41 72/44/41
f 53/31/42 51/28/42 66/28/42
f 57/35/43 69/35/43 70/37/43
f 49/46/44 63/44/44 72/44/44
f 51/28/45 49/29/45 65/29/45
f 50/27/28 51/28/28 52/30/28
f 52/30/29 53/31/29 54/32/29
f 54/32/30 55/33/30 56/34/30
f 56/34/31 57/35/31 58/36/31
f 58/36/32 59/37/32 60/38/32
f 60/38/33 61/39/33 62/43/33
f 54/42/34 50/51/34 52/50/34
f 50/51/34 62/40/34 64/52/34
f 62/40/34 58/41/34 60/53/34
f 58/41/34 54/42/34 56/54/34
f 54/42/34 62/40/34 50/51/34
f 62/43/35 63/44/35 64/45/35
f 64/45/36 49/46/36 50/55/36
f 55/33/37 67/31/37 68/33/37
f 72/49/38 66/57/38 65/56/38
f 66/57/38 68/47/38 67/58/38
f 68/47/38 70/48/38 69/59/38
f 70/48/38 72/49/38 71/60/38
f 72/49/38 68/47/38 66/57/38
f 61/39/39 70/37/39 71/39/39
f 55/33/40 69/35/40 57/35/40
f 61/39/41 72/44/41 63/44/41
f 53/31/42 66/28/42 67/31/42
f 57/35/43 70/37/43 59/37/43
f 49/46/44 72/44/44 65/46/44
f 51/28/45 65/29/45 66/28/45
o Cylinder.005
v -0.041366 -0.084761 0.758752
v -0.045837 0.019470 0.644982
v -0.013710 -0.063556 0.777093
v -0.018181 0.040675 0.663322
v 0.025654 -0.062599 0.776422
v 0.021183 0.041632 0.662652
v 0.053667 -0.082452 0.757133
v 0.049196 0.021779 0.643363
v 0.053919 -0.111484 0.730526
v 0.049448 -0.007253 0.616755
v 0.026263 -0.132689 0.712186
v 0.021792 -0.028458 0.598415
v -0.013101 -0.133645 0.712856
v -0.017572 -0.029414 0.599086
v -0.041114 -0.113793 0.732145
v -0.045585 -0.009562 0.618374
v 0.000685 -0.567407 1.272557
v 0.015798 -0.555820 1.282579
v 0.037308 -0.555297 1.282213
v 0.052616 -0.566146 1.271673
v 0.052753 -0.582010 1.257133
v 0.037641 -0.593598 1.247111
v 0.016130 -0.594120 1.247478
v 0.000823 -0.583272 1.258018
vn -0.7113 0.5041 0.4898
vn -0.0064 0.7372 0.6756
vn 0.7023 0.5385 0.4657
vn 0.9996 0.0243 -0.0170
vn 0.7113 -0.5041 -0.4898
vn 0.0064 -0.7372 -0.6756
vn -0.0290 0.6752 -0.7370
vn -0.7023 -0.5385 -0.4657
vn -0.9996 -0.0243 0.0170
vn 0.7028 0.5176 0.4880
vn 0.0290 -0.6752 0.7370
vn 0.0073 -0.7575 -0.6528
vn 1.0000 0.0037 0.0055
vn -0.7011 -0.5588 -0.4430
vn -0.0055 0.7162 0.6978
vn 0.7119 -0.5245 -0.4671
vn -0.9982 -0.0449 0.0395
vn -0.7101 0.4833 0.5121
vt 1.000000 1.000000
vt 0.875000 0.500000
vt 1.000000 0.500000
vt 0.875000 1.000000
vt 0.750000 0.500000
vt 0.750000 1.000000
vt 0.625000 0.500000
vt 0.625000 1.000000
vt 0.500000 0.500000
vt 0.500000 1.000000
vt 0.375000 0.500000
vt 0.375000 1.000000
vt 0.250000 0.500000
vt 0.010000 0.250000
vt 0.250000 0.010000
vt 0.490000 0.250000
vt 0.250000 1.000000
vt 0.125000 0.500000
vt 0.125000 1.000000
vt 0.000000 0.500000
vt 0.919706 0.080294
vt 0.580294 0.080294
vt 0.580294 0.419706
vt 0.419706 0.419706
vt 0.250000 0.490000
vt 0.080294 0.419706
vt 0.080294 0.080294
vt 0.419706 0.080294
vt 0.000000 1.000000
vt 0.750000 0.490000
vt 0.919706 0.419706
vt 0.990000 0.250000
vt 0.750000 0.010000
vt 0.510000 0.250000
s 0
f 74/61/46 73/63/46 75/62/46
f 76/64/47 75/62/47 77/65/47
f 78/66/48 77/65/48 79/67/48
f 80/68/49 79/67/49 81/69/49
f 82/70/50 81/69/50 83/71/50
f 84/72/51 83/71/51 85/73/51
f 86/74/52 78/76/52 82/75/52
f 86/77/53 85/73/53 87/78/53
f 88/79/54 87/78/54 73/80/54
f 79/67/55 77/65/55 91/65/55
f 92/81/56 96/83/56 94/82/56
f 85/73/57 83/71/57 94/71/57
f 79/67/58 92/67/58 93/69/58
f 85/73/59 95/73/59 96/78/59
f 77/65/60 75/62/60 90/62/60
f 81/69/61 93/69/61 94/71/61
f 73/80/62 87/78/62 96/78/62
f 75/62/63 73/63/63 89/63/63
f 74/61/46 75/62/46 76/64/46
f 76/64/47 77/65/47 78/66/47
f 78/66/48 79/67/48 80/68/48
f 80/68/49 81/69/49 82/70/49
f 82/70/50 83/71/50 84/72/50
f 84/72/51 85/73/51 86/77/51
f 78/76/52 74/85/52 76/84/52
f 74/85/52 86/74/52 88/86/52
f 86/74/52 82/75/52 84/87/52
f 82/75/52 78/76/52 80/88/52
f 78/76/52 86/74/52 74/85/52
f 86/77/53 87/78/53 88/79/53
f 88/79/54 73/80/54 74/89/54
f 79/67/55 91/65/55 92/67/55
f 96/83/56 90/91/56 89/90/56
f 90/91/56 92/81/56 91/92/56
f 92/81/56 94/82/56 93/93/56
f 94/82/56 96/83/56 95/94/56
f 96/83/56 92/81/56 90/91/56
f 85/73/57 94/71/57 95/73/57
f 79/67/58 93/69/58 81/69/58
f 85/73/59 96/78/59 87/78/59
f 77/65/60 90/62/60 91/65/60
f 81/69/61 94/71/61 83/71/61
f 73/80/62 96/78/62 89/80/62
f 75/62/63 89/63/63 90/62/63
o Cylinder.007
v -0.045842 -0.102172 1.393215
v -0.050313 0.002059 1.279445
v -0.018185 -0.080967 1.411556
v -0.022656 0.023264 1.297785
v 0.021179 -0.080010 1.410885
v 0.016708 0.024220 1.297114
v 0.049191 -0.099863 1.391596
v 0.044720 0.004368 1.277826
v 0.049443 -0.128895 1.364989
v 0.044972 -0.024664 1.251218
v 0.021787 -0.150100 1.346649
v 0.017316 -0.045869 1.232878
v -0.017577 -0.151056 1.347319
v -0.022048 -0.046825 1.233549
v -0.045590 -0.131204 1.366608
v -0.050061 -0.026973 1.252837
v 0.048918 -0.225617 1.525370
v 0.024182 -0.206982 1.541230
v -0.009957 -0.271085 1.486675
v 0.024769 -0.270892 1.486839
v 0.049138 -0.252076 1.502852
v -0.034754 -0.252509 1.502484
v -0.010623 -0.207128 1.541106
v -0.035053 -0.226004 1.525042
vn -0.7113 0.5041 0.4898
vn -0.0064 0.7372 0.6756
vn 0.7023 0.5385 0.4657
vn 0.9996 0.0243 -0.0170
vn 0.7113 -0.5041 -0.4898
vn 0.0064 -0.7372 -0.6756
vn -0.0290 0.6752 -0.7370
vn -0.7023 -0.5385 -0.4657
vn -0.9996 -0.0243 0.0170
vn -0.7101 0.4833 0.5121
vn -0.9982 -0.0449 0.0395
vn 0.7119 -0.5245 -0.4671
vn 0.0073 -0.7575 -0.6528
vn -0.7011 -0.5588 -0.4430
vn -0.0055 0.7162 0.6978
vn 0.7028 0.5176 0.4880
vn 1.0000 0.0037 0.0055
vn -0.0000 -0.6481 0.7615
vt 1.000000 1.000000
vt 0.875000 0.500000
vt 1.000000 0.500000
vt 0.875000 1.000000
vt 0.750000 0.500000
vt 0.750000 1.000000
vt 0.625000 0.500000
vt 0.625000 1.000000
vt 0.500000 0.500000
vt 0.500000 1.000000
vt 0.375000 0.500000
vt 0.375000 1.000000
vt 0.250000 0.500000
vt 0.010000 0.250000
vt 0.250000 0.010000
vt 0.490000 0.250000
vt 0.250000 1.000000
vt 0.125000 0.500000
vt 0.125000 1.000000
vt 0.000000 0.500000
vt 0.419706 0.419706
vt 0.250000 0.490000
vt 0.080294 0.419706
vt 0.080294 0.080294
vt 0.419706 0.080294
vt 0.000000 1.000000
s 0
f 98/95/64 97/97/64 99/96/64
f 100/98/65 99/96/65 101/99/65
f 102/100/66 101/99/66 103/101/66
f 104/102/67 103/101/67 105/103/67
f 106/104/68 105/103/68 107/105/68
f 108/106/69 107/105/69 109/107/69
f 110/108/70 102/110/70 106/109/70
f 110/111/71 109/107/71 111/112/71
f 112/113/72 111/112/72 97/114/72
f 97/97/73 120/97/73 119/96/73
f 111/112/74 118/112/74 120/114/74
f 107/105/75 105/103/75 117/103/75
f 107/105/76 116/105/76 115/107/76
f 109/107/77 115/107/77 118/112/77
f 101/99/78 99/96/78 119/96/78
f 103/101/79 101/99/79 114/99/79
f 105/103/80 103/101/80 113/101/80
f 117/103/81 120/114/81 115/107/81
f 98/95/64 99/96/64 100/98/64
f 100/98/65 101/99/65 102/100/65
f 102/100/66 103/101/66 104/102/66
f 104/102/67 105/103/67 106/104/67
f 106/104/68 107/105/68 108/106/68
f 108/106/69 109/107/69 110/111/69
f 102/110/70 98/116/70 100/115/70
f 98/116/70 110/108/70 112/117/70
f 110/108/70 106/109/70 108/118/70
f 106/109/70 102/110/70 104/119/70
f 102/110/70 110/108/70 98/116/70
f 110/111/71 111/112/71 112/113/71
f 112/113/72 97/114/72 98/120/72
f 97/97/73 119/96/73 99/96/73
f 111/112/74 120/114/74 97/114/74
f 107/105/75 117/103/75 116/105/75
f 107/105/76 115/107/76 109/107/76
f 109/107/77 118/112/77 111/112/77
f 101/99/78 119/96/78 114/99/78
f 103/101/79 114/99/79 113/101/79
f 105/103/80 113/101/80 117/103/80
f 120/114/81 114/99/81 119/96/81
f 114/99/81 117/103/81 113/101/81
f 117/103/81 115/107/81 116/105/81
f 115/107/81 120/114/81 118/112/81
f 120/114/81 117/103/81 114/99/81
o Cylinder.008
v -0.009218 -0.279097 1.184701
v -0.006459 -0.265256 1.168455
v 0.010582 -0.256601 1.158566
v 0.031923 -0.258202 1.160827
v 0.045062 -0.269120 1.173913
v 0.042303 -0.282960 1.190159
v 0.025262 -0.291615 1.200048
v 0.003921 -0.290015 1.197787
v 0.036182 -0.371711 1.058673
v 0.011009 -0.369628 1.056182
v 0.028314 -0.410692 1.105280
v 0.048417 -0.400757 1.093402
v 0.051681 -0.384608 1.074093
v 0.003156 -0.408600 1.102779
v -0.009081 -0.379573 1.068073
v -0.012329 -0.395713 1.087371
vn 0.1278 0.6661 -0.7348
vn -0.0114 0.7621 0.6473
vn 0.6099 -0.4838 0.6276
vn 0.7912 0.4253 -0.4395
vn -0.1285 -0.6196 0.7744
vn -0.6106 0.5304 -0.5881
vn 0.9909 -0.0511 0.1248
vn -0.7919 -0.3787 0.4791
vn -0.9916 0.0976 -0.0853
vt 0.750000 0.500000
vt 0.625000 0.500000
vt 0.919706 0.080294
vt 0.580294 0.080294
vt 0.580294 0.419706
vt 0.250000 0.500000
vt 0.375000 0.500000
vt 0.500000 0.500000
vt 0.125000 0.500000
vt 0.875000 0.500000
vt 0.000000 0.500000
vt 1.000000 0.500000
vt 0.750000 0.490000
vt 0.919706 0.419706
vt 0.990000 0.250000
vt 0.750000 0.010000
vt 0.510000 0.250000
s 0
f 130/121/82 123/121/82 124/122/82
f 124/123/83 128/125/83 126/124/83
f 131/126/84 132/127/84 126/127/84
f 129/122/85 124/122/85 125/128/85
f 134/129/86 131/126/86 127/126/86
f 135/130/87 122/130/87 123/121/87
f 132/127/88 133/128/88 125/128/88
f 136/131/89 134/129/89 128/129/89
f 136/132/90 121/132/90 122/130/90
f 130/121/82 124/122/82 129/122/82
f 128/125/83 122/134/83 121/133/83
f 122/134/83 124/123/83 123/135/83
f 124/123/83 126/124/83 125/136/83
f 126/124/83 128/125/83 127/137/83
f 128/125/83 124/123/83 122/134/83
f 131/126/84 126/127/84 127/126/84
f 129/122/85 125/128/85 133/128/85
f 134/129/86 127/126/86 128/129/86
f 135/130/87 123/121/87 130/121/87
f 132/127/88 125/128/88 126/127/88
f 136/131/89 128/129/89 121/131/89
f 136/132/90 122/130/90 135/130/90
o Cylinder.009
v -0.000311 -0.570324 1.015814
v 0.004511 -0.585135 1.030664
v 0.022742 -0.592821 1.039129
v 0.043701 -0.588882 1.036252
v 0.055112 -0.575624 1.023718
v 0.050290 -0.560813 1.008868
v 0.032060 -0.553127 1.000402
v 0.011100 -0.557066 1.003279
v 0.041389 -0.484549 1.147820
v 0.016676 -0.489374 1.151020
v 0.027673 -0.442774 1.105153
v 0.049162 -0.451587 1.115376
v 0.054849 -0.468893 1.133052
v 0.002978 -0.447607 1.108363
v -0.004800 -0.480548 1.140785
v -0.010470 -0.463251 1.123119
vn 0.2250 -0.7093 0.6680
vn 0.0343 -0.7020 -0.7113
vn 0.5311 0.5944 -0.6039
vn 0.8478 -0.3785 0.3715
vn -0.2229 0.6665 -0.7114
vn -0.5290 -0.6372 0.5605
vn 0.9746 0.1615 -0.1553
vn -0.8457 0.3356 -0.4149
vn -0.9725 -0.2044 0.1119
vt 0.750000 0.500000
vt 0.625000 0.500000
vt 0.919706 0.080294
vt 0.580294 0.080294
vt 0.580294 0.419706
vt 0.250000 0.500000
vt 0.375000 0.500000
vt 0.500000 0.500000
vt 0.125000 0.500000
vt 0.875000 0.500000
vt 0.000000 0.500000
vt 1.000000 0.500000
vt 0.750000 0.490000
vt 0.919706 0.419706
vt 0.990000 0.250000
vt 0.750000 0.010000
vt 0.510000 0.250000
s 0
f 146/138/91 139/138/91 140/139/91
f 140/140/92 144/142/92 142/141/92
f 147/143/93 148/144/93 142/144/93
f 145/139/94 140/139/94 141/145/94
f 150/146/95 147/143/95 143/143/95
f 151/147/96 138/147/96 139/138/96
f 148/144/97 149/145/97 141/145/97
f 152/148/98 150/146/98 144/146/98
f 152/149/99 137/149/99 138/147/99
f 146/138/91 140/139/91 145/139/91
f 144/142/92 138/151/92 137/150/92
f 138/151/92 140/140/92 139/152/92
f 140/140/92 142/141/92 141/153/92
f 142/141/92 144/142/92 143/154/92
f 144/142/92 140/140/92 138/151/92
f 147/143/93 142/144/93 143/143/93
f 145/139/94 141/145/94 149/145/94
f 150/146/95 143/143/95 144/146/95
f 151/147/96 139/138/96 146/138/96
f 148/144/97 141/145/97 142/144/97
f 152/148/98 144/146/98 137/148/98
f 152/149/99 138/147/99 151/147/99
o Cylinder.010
v 0.008913 0.316600 1.398636
v 0.019843 0.331095 1.410192
v 0.040656 0.335881 1.412841
v 0.059160 0.328155 1.405029
v 0.064516 0.312443 1.391334
v 0.053586 0.297948 1.379778
v 0.032773 0.293162 1.377129
v 0.014269 0.300888 1.384941
v 0.055300 0.429254 1.290566
v 0.033486 0.438191 1.299974
v 0.024205 0.387637 1.258088
v 0.048731 0.393497 1.260940
v 0.061617 0.410737 1.274393
v 0.002412 0.396579 1.267500
v 0.008967 0.432316 1.297110
v -0.003898 0.415082 1.283659
vn 0.5093 0.6535 0.5600
vn 0.0517 -0.6461 0.7615
vn 0.2503 -0.7495 -0.6128
vn 0.9683 0.2026 0.1463
vn -0.5061 -0.6929 -0.5135
vn -0.2472 0.7100 0.6593
vn 0.8610 -0.3786 -0.3396
vn -0.9651 -0.2420 -0.0998
vn -0.8579 0.3391 0.3861
vn 0.5092 0.6535 0.5600
vt 0.750000 0.500000
vt 0.625000 0.500000
vt 0.919706 0.080294
vt 0.580294 0.080294
vt 0.580294 0.419706
vt 0.250000 0.500000
vt 0.375000 0.500000
vt 0.500000 0.500000
vt 0.125000 0.500000
vt 0.875000 0.500000
vt 0.000000 0.500000
vt 1.000000 0.500000
vt 0.750000 0.490000
vt 0.919706 0.419706
vt 0.990000 0.250000
vt 0.750000 0.010000
vt 0.510000 0.250000
s 0
f 162/155/100 155/155/100 156/156/100
f 156/157/101 160/159/101 158/158/101
f 163/160/102 164/161/102 158/161/102
f 161/156/103 156/156/103 157/162/103
f 166/163/104 163/160/104 159/160/104
f 167/164/105 154/164/105 155/155/105
f 164/161/106 165/162/106 157/162/106
f 168/165/107 166/163/107 160/163/107
f 168/166/108 153/166/108 154/164/108
f 162/155/109 156/156/109 161/156/109
f 160/159/101 154/168/101 153/167/101
f 154/168/101 156/157/101 155/169/101
f 156/157/101 158/158/101 157/170/101
f 158/158/101 160/159/101 159/171/101
f 160/159/101 156/157/101 154/168/101
f 163/160/102 158/161/102 159/160/102
f 161/156/103 157/162/103 165/162/103
f 166/163/104 159/160/104 160/163/104
f 167/164/105 155/155/105 162/155/105
f 164/161/106 157/162/106 158/161/106
f 168/165/107 160/163/107 153/165/107
f 168/166/108 154/164/108 167/164/108
o Cylinder.011
v -0.025952 0.166223 1.427594
v -0.023192 0.180063 1.411348
v -0.006151 0.188718 1.401459
v 0.015190 0.187117 1.403720
v 0.028329 0.176199 1.416807
v 0.025570 0.162359 1.433053
v 0.008528 0.153704 1.442942
v -0.012813 0.155304 1.440681
v 0.019449 0.073608 1.301566
v -0.005725 0.075691 1.299075
v 0.011580 0.034627 1.348173
v 0.031684 0.044562 1.336295
v 0.034948 0.060711 1.316986
v -0.013577 0.036719 1.345672
v -0.025815 0.065746 1.310966
v -0.029063 0.049606 1.330264
vn 0.1278 0.6661 -0.7348
vn -0.0114 0.7621 0.6473
vn 0.6099 -0.4838 0.6276
vn 0.7912 0.4253 -0.4395
vn -0.1285 -0.6196 0.7744
vn -0.6106 0.5304 -0.5881
vn 0.9909 -0.0511 0.1248
vn -0.7919 -0.3787 0.4791
vn -0.9916 0.0976 -0.0853
vt 0.750000 0.500000
vt 0.625000 0.500000
vt 0.919706 0.080294
vt 0.580294 0.080294
vt 0.580294 0.419706
vt 0.250000 0.500000
vt 0.375000 0.500000
vt 0.500000 0.500000
vt 0.125000 0.500000
vt 0.875000 0.500000
vt 0.000000 0.500000
vt 1.000000 0.500000
vt 0.750000 0.490000
vt 0.919706 0.419706
vt 0.990000 0.250000
vt 0.750000 0.010000
vt 0.510000 0.250000
s 0
f 178/172/110 171/172/110 172/173/110
f 172/174/111 176/176/111 174/175/111
f 179/177/112 180/178/112 174/178/112
f 177/173/113 172/173/113 173/179/113
f 182/180/114 179/177/114 175/177/114
f 183/181/115 170/181/115 171/172/115
f 180/178/116 181/179/116 173/179/116
f 184/182/117 182/180/117 176/180/117
f 184/183/118 169/183/118 170/181/118
f 178/172/110 172/173/110 177/173/110
f 176/176/111 170/185/111 169/184/111
f 170/185/111 172/174/111 171/186/111
f 172/174/111 174/175/111 173/187/111
f 174/175/111 176/176/111 175/188/111
f 176/176/111 172/174/111 170/185/111
f 179/177/112 174/178/112 175/177/112
f 177/173/113 173/179/113 181/179/113
f 182/180/114 175/177/114 176/180/114
f 183/181/115 171/172/115 178/172/115
f 180/178/116 173/179/116 174/178/116
f 184/182/117 176/180/117 169/182/117
f 184/183/118 170/181/118 183/181/118
